# xmcd
#
# Track frame offsets:
#	156
#	23207
#	49947
#	63924
#	80745
#	96073
#	200464
#	219914
#	235479
#
# Disc length: 3368 seconds
#
# Revision: 1
# Processed by: cddbd v1.5.2PL0 Copyright (c) Steve Scherf et al.
# Submitted via: MusicManager 7.3.0.0 
#
DISCID=780d2609
DTITLE=Canned Heat - Live In Oz Featuring Walter Trout
DYEAR=1163
DGENRE=Blues
TTITLE0=On The Road Again
TTITLE1=Amphetamine Annie
TTITLE2=Going Up Country
TTITLE3=Let´s Work Together
TTITLE4=Kings Of The Boogie
TTITLE5=Redried Hockey Boogie
TTITLE6=Hell´s On Down The Line
TTITLE7=Chicken Shack Boogie
TTITLE8=So Long
EXTD=
EXTT0=
EXTT1=
EXTT2=
EXTT3=
EXTT4=
EXTT5=
EXTT6=
EXTT7=
EXTT8=
PLAYORDER=
